<?xml version="1.0" encoding="iso-8859-1"?>
<!-- Generator: Adobe Illustrator 25.0.0, SVG Export Plug-In . SVG Version: 6.00 Build 0)  -->
<svg version="1.1" id="&#x56FE;&#x5C42;_1" xmlns="http://www.w3.org/2000/svg" xmlns:xlink="http://www.w3.org/1999/xlink" x="0px"
	 y="0px" viewBox="0 0 173.137 50.98" style="enable-background:new 0 0 173.137 50.98;" xml:space="preserve">
<g>
	<g>
		<linearGradient id="SVGID_1_" gradientUnits="userSpaceOnUse" x1="0.5225" y1="30.5584" x2="54.8782" y2="30.5584">
			<stop  offset="0.5956" style="stop-color:#2C9BFF"/>
			<stop  offset="0.6629" style="stop-color:#319DFF"/>
			<stop  offset="0.7439" style="stop-color:#40A3FE"/>
			<stop  offset="0.8321" style="stop-color:#58ADFD"/>
			<stop  offset="0.9246" style="stop-color:#7ABBFB"/>
			<stop  offset="1" style="stop-color:#9BC9FA"/>
		</linearGradient>
		<path style="fill:url(#SVGID_1_);" d="M54.616,10.804c-0.237-0.896-1.522-0.888-1.757,0.019c-0.189,0.731-0.419,1.45-0.791,2.107
			c-2.005,3.539-5.306,7.341-8.019,9.305c-9.606,6.952-17.273,8.803-22.829,9.49c-4.742,0.586-8.855-0.019-11.081-0.986
			C-0.465,26.138,3.767,18.96,6.273,15.792c0.209-0.264-0.07-0.451-0.301-0.206c-7.41,7.853-6.387,15.435-2.126,18.589
			c2.479,1.835,5.74,2.64,7.803,2.983c1.17,0.195,2.163,0.986,2.574,2.099c4.102,11.114,16.643,11.688,16.643,11.688
			c2.643,0.119,4.778-0.072,6.54-0.429c1.765-0.358,1.875-2.821,0.158-3.366c-4.01-1.273-5.324-4.568-5.619-6.012
			c-0.487-2.385,0.891-5.763,2.887-7.202c1.964-1.415,4.163-2.415,4.894-2.779c5.008-2.494,11.281-7.339,13.745-12.64
			C55.081,15.053,55.067,12.511,54.616,10.804z"/>
		<linearGradient id="SVGID_2_" gradientUnits="userSpaceOnUse" x1="23.1787" y1="30.4527" x2="51.0208" y2="-40.4874">
			<stop  offset="0.8301" style="stop-color:#499AFF"/>
			<stop  offset="1" style="stop-color:#9BC9FA"/>
		</linearGradient>
		<path style="opacity:0.31;fill:url(#SVGID_2_);" d="M45.613,3.639c4.587,1.174,6.449,3.06,7.142,4.051
			c0.092,0.131,0.302,0.041,0.27-0.116c-0.516-2.585-2.962-4.107-3.927-4.511C31.831-4.151,14.001,8.841,9.266,12.693
			c-0.07,0.057,0.012,0.162,0.086,0.111C25.429,1.686,38.414,1.797,45.613,3.639z"/>
		<linearGradient id="SVGID_3_" gradientUnits="userSpaceOnUse" x1="8.243" y1="38.7795" x2="32.2591" y2="5.6537">
			<stop  offset="0.5116" style="stop-color:#2C9BFF"/>
			<stop  offset="0.8724" style="stop-color:#9BC9FA"/>
		</linearGradient>
		<path style="fill:url(#SVGID_3_);" d="M31.348,17.171c-6.98,2.514-13.82,0.847-15.378-3.478l0,0
			c-0.231-0.645-1.045-0.856-1.555-0.397c-2.932,2.637-4.332,5.864-3.346,8.602c1.557,4.325,8.479,5.793,15.459,3.28
			c4.061-1.462,7.251-3.824,8.903-6.414c0.881-1.381-0.582-3.05-2.08-2.389C32.704,16.661,32.033,16.925,31.348,17.171z"/>
	</g>
	<g>
		<path style="fill:#2C9BFF;" d="M93.498,13.137H66.55c-0.64,0-1.159-0.519-1.159-1.159v0c0-0.64,0.519-1.159,1.159-1.159h26.948
			c0.64,0,1.159,0.519,1.159,1.159v0C94.657,12.618,94.138,13.137,93.498,13.137z"/>
		<path style="fill:#2C9BFF;" d="M107.419,13.137h-5.293c-0.64,0-1.159-0.519-1.159-1.159v0c0-0.64,0.519-1.159,1.159-1.159h5.293
			c0.64,0,1.159,0.519,1.159,1.159v0C108.577,12.618,108.059,13.137,107.419,13.137z"/>
		<path style="fill:#2C9BFF;" d="M143.71,13.237h-5.412c-0.64,0-1.159-0.519-1.159-1.159v0c0-0.64,0.519-1.159,1.159-1.159h5.412
			c0.64,0,1.159,0.519,1.159,1.159v0C144.869,12.719,144.35,13.237,143.71,13.237z"/>
		<path style="fill:#2C9BFF;" d="M166.32,13.237h-19.104c-0.64,0-1.159-0.519-1.159-1.159v0c0-0.64,0.519-1.159,1.159-1.159h19.104
			c0.64,0,1.159,0.519,1.159,1.159v0C167.478,12.719,166.96,13.237,166.32,13.237z"/>
		<rect x="147.506" y="22.722" style="fill:#2C9BFF;" width="20.197" height="2.317"/>
		<rect x="148.121" y="27.767" style="fill:#2C9BFF;" width="20.197" height="2.317"/>
		<path style="fill:#2C9BFF;" d="M166.305,35.355h-3.041c-0.64,0-1.159-0.519-1.159-1.159l0,0c0-0.64,0.519-1.159,1.159-1.159h3.041
			c0.64,0,1.159,0.519,1.159,1.159l0,0C167.463,34.837,166.945,35.355,166.305,35.355z"/>
		<path style="fill:#2C9BFF;" d="M167.993,20.187h-20.777c-0.64,0-1.159-0.519-1.159-1.159v0c0-0.64,0.519-1.159,1.159-1.159h20.777
			c0.64,0,1.159,0.519,1.159,1.159v0C169.152,19.668,168.633,20.187,167.993,20.187z"/>
		<path style="fill:#2C9BFF;" d="M129.557,28.926h-16.171c-0.64,0-1.159-0.519-1.159-1.159v0c0-0.64,0.519-1.159,1.159-1.159h16.171
			c0.64,0,1.159,0.519,1.159,1.159v0C130.715,28.407,130.197,28.926,129.557,28.926z"/>
		<path style="fill:#2C9BFF;" d="M130.956,35.96h-18.898c-0.64,0-1.159-0.519-1.159-1.159v0c0-0.64,0.519-1.159,1.159-1.159h18.898
			c0.64,0,1.159,0.519,1.159,1.159v0C132.115,35.441,131.596,35.96,130.956,35.96z"/>
		<path style="fill:#2C9BFF;" d="M129.728,12.514h-17.596c-0.468,0-0.847-0.379-0.847-0.847v0c0-0.468,0.379-0.847,0.847-0.847
			h17.596c0.468,0,0.847,0.379,0.847,0.847v0C130.575,12.135,130.196,12.514,129.728,12.514z"/>
		<path style="fill:#2C9BFF;" d="M109.063,38.975h-3.861c-0.64,0-1.159-0.519-1.159-1.159v0c0-0.64,0.519-1.159,1.159-1.159h3.861
			c0.64,0,1.159,0.519,1.159,1.159v0C110.222,38.457,109.703,38.975,109.063,38.975z"/>
		<path style="fill:#2C9BFF;" d="M107.066,17.421h-4.94c-0.64,0-1.159-0.519-1.159-1.159v0c0-0.64,0.519-1.159,1.159-1.159h4.94
			c0.64,0,1.159,0.519,1.159,1.159v0C108.224,16.903,107.705,17.421,107.066,17.421z"/>
		<path style="fill:#2C9BFF;" d="M94.831,23.382H65.128c-0.64,0-1.159-0.519-1.159-1.159v0c0-0.64,0.519-1.159,1.159-1.159h29.702
			c0.64,0,1.159,0.519,1.159,1.159v0C95.989,22.863,95.471,23.382,94.831,23.382z"/>
		<polygon style="fill:#2C9BFF;" points="92.391,39.008 68.817,38.958 68.817,34.484 92.391,34.484 		"/>
		<path style="fill:#2C9BFF;" d="M72.392,38.779c0,0-6.736,1.393-6.547-2.556c0.339-3.504,1.683-12.841,1.683-12.841h5.985
			L72.392,38.779z"/>
		<circle style="fill:#2C9BFF;" cx="92.531" cy="36.386" r="2.622"/>
		<path style="fill:#2C9BFF;" d="M94.032,37.101H90.56c-0.569,0-1.037-0.493-1.064-1.119l-0.198-4.6
			c-0.029-0.67,0.456-1.231,1.064-1.231h3.369c0.559,0,1.022,0.476,1.062,1.091l0.3,4.6C95.138,36.522,94.65,37.101,94.032,37.101z"
			/>
		<rect x="102.581" y="16.263" style="fill:#2C9BFF;" width="5.643" height="20.691"/>
		<path style="fill:#2C9BFF;" d="M143.474,17.421h-4.94c-0.64,0-1.159-0.519-1.159-1.159v0c0-0.64,0.519-1.159,1.159-1.159h4.94
			c0.64,0,1.159,0.519,1.159,1.159v0C144.633,16.903,144.114,17.421,143.474,17.421z"/>
		<path style="fill:#2C9BFF;" d="M167.993,38.975h-27.436c-0.64,0-1.159-0.519-1.159-1.159l0,0c0-0.64,0.519-1.159,1.159-1.159
			h27.436c0.64,0,1.159,0.519,1.159,1.159l0,0C169.152,38.457,168.633,38.975,167.993,38.975z"/>
		<polygon style="fill:#2C9BFF;" points="143.901,36.762 138.124,36.377 138.99,16.263 144.633,16.263 		"/>
		<circle style="fill:#2C9BFF;" cx="104.922" cy="36.658" r="2.342"/>
		<circle style="fill:#2C9BFF;" cx="140.465" cy="36.658" r="2.342"/>
		<ellipse style="fill:#2C9BFF;" cx="129.879" cy="12.079" rx="1.198" ry="1.259"/>
		
			<ellipse transform="matrix(0.0436 -0.999 0.999 0.0436 112.1493 141.3075)" style="fill:#2C9BFF;" cx="129.879" cy="12.079" rx="1.198" ry="1.259"/>
		
			<ellipse transform="matrix(0.0436 -0.999 0.999 0.0436 147.1055 178.3066)" style="fill:#2C9BFF;" cx="166.681" cy="12.321" rx="1.429" ry="1.503"/>
		<path style="fill:#2C9BFF;" d="M131.481,23.561l0.007-1.58c0.002-0.477-0.314-0.896-0.773-1.023
			c-4.876-1.35-10.357-4.248-12.606-6.947c-0.19-0.229-0.465-0.366-0.763-0.378c-0.686-0.028-1.936-0.02-3.029-0.006
			c-0.912,0.012-1.38,1.09-0.773,1.77c2.59,2.901,8.546,7.912,16.7,9.206C130.89,24.706,131.478,24.215,131.481,23.561z"/>
		<path style="fill:#2C9BFF;" d="M111.401,23.386l-0.007-1.565c-0.002-0.478,0.315-0.9,0.777-1.024
			c5.035-1.353,10.419-3.949,13.581-8.718c0.275-0.147,5.298,0.435,5.298,0.435c-0.959,1.775-8.102,10.214-18.397,11.92
			C112,24.542,111.404,24.047,111.401,23.386z"/>
		<path style="fill:#2C9BFF;" d="M123.215,39h-3.457c-0.589,0-1.066-0.477-1.066-1.066V25.459c0-0.589,0.477-1.066,1.066-1.066
			h3.457c0.589,0,1.066,0.477,1.066,1.066v12.475C124.281,38.523,123.803,39,123.215,39z"/>
		<polygon style="fill:#2C9BFF;" points="166.255,17.87 160.363,17.87 162.265,12.96 168.135,12.688 		"/>
		<path style="fill:#2C9BFF;" d="M152.201,19.574l3.166,0.072c0.776,0.018,1.309-0.775,1-1.487l-1.31-3.018
			c-0.169-0.389-0.552-0.64-0.975-0.64h-3.34c-0.792,0-1.306,0.835-0.95,1.542l1.484,2.946
			C151.452,19.341,151.808,19.566,152.201,19.574z"/>
		<path style="fill:#2C9BFF;" d="M150.812,18.574h-3.984c-0.426,0-0.77,0.345-0.77,0.77v15.022c0,0.587,0.476,1.062,1.062,1.062
			h2.883c0.587,0,1.062-0.476,1.062-1.062V18.828C151.066,18.688,150.952,18.574,150.812,18.574z"/>
		<path style="fill:#2C9BFF;" d="M159.046,18.574h-2.882c-0.587,0-1.063,0.476-1.063,1.063v14.728c0,0.587,0.476,1.063,1.063,1.063
			h2.882c0.587,0,1.063-0.476,1.063-1.063V19.637C160.109,19.05,159.633,18.574,159.046,18.574z"/>
		<path style="fill:#2C9BFF;" d="M168.517,18.085h-4.34v14.401h5.008V18.753C169.185,18.384,168.886,18.085,168.517,18.085z"/>
		<path style="fill:#2C9BFF;" d="M166.884,29.696c0.035,0.176,0.055,0.358,0.055,0.544c0,1.585-1.338,2.869-2.988,2.869
			c-0.237,0-0.466-0.029-0.687-0.079c0.265,1.324,1.476,2.325,2.932,2.325c1.65,0,2.988-1.285,2.988-2.869
			C169.185,31.129,168.203,29.994,166.884,29.696z"/>
		<rect x="164.177" y="31.328" style="fill:#2C9BFF;" width="2.361" height="2.048"/>
	</g>
	<g>
		<path style="fill:#2C9BFF;" d="M68.842,49.201h-2.169L66.14,50.98h-1l2.067-6.236h1.135l2.067,6.236h-1.042L68.842,49.201z
			 M68.605,48.43l-0.246-0.839c-0.212-0.677-0.398-1.372-0.593-2.075h-0.034c-0.178,0.711-0.373,1.398-0.576,2.075l-0.254,0.839
			H68.605z"/>
		<path style="fill:#2C9BFF;" d="M74.958,44.744h0.983v6.236h-0.983V44.744z"/>
		<path style="fill:#2C9BFF;" d="M88.207,45.565h-1.83v-0.821h4.651v0.821h-1.839v5.414h-0.983V45.565z"/>
		<path style="fill:#2C9BFF;" d="M95.314,46.32h0.796l0.076,0.839h0.025c0.33-0.602,0.822-0.957,1.322-0.957
			c0.229,0,0.381,0.034,0.525,0.101l-0.178,0.847c-0.161-0.051-0.28-0.076-0.466-0.076c-0.381,0-0.839,0.262-1.135,1v2.906h-0.966
			V46.32z"/>
		<path style="fill:#2C9BFF;" d="M101.998,49.743c0-1,0.847-1.517,2.787-1.729c-0.008-0.542-0.203-1.017-0.889-1.017
			c-0.492,0-0.949,0.22-1.347,0.474l-0.364-0.661c0.483-0.305,1.135-0.609,1.881-0.609c1.161,0,1.695,0.737,1.695,1.974v2.804
			h-0.796l-0.085-0.534h-0.025c-0.424,0.365-0.924,0.644-1.483,0.644C102.565,51.09,101.998,50.564,101.998,49.743z M104.785,49.776
			v-1.144c-1.381,0.17-1.847,0.517-1.847,1.042c0,0.457,0.313,0.643,0.728,0.643C104.073,50.318,104.404,50.124,104.785,49.776z"/>
		<path style="fill:#2C9BFF;" d="M110.866,46.32h0.796l0.076,0.644h0.025c0.432-0.415,0.906-0.762,1.542-0.762
			c0.991,0,1.432,0.66,1.432,1.847v2.931h-0.974v-2.813c0-0.804-0.237-1.127-0.788-1.127c-0.432,0-0.729,0.22-1.144,0.635v3.304
			h-0.966V46.32z"/>
		<path style="fill:#2C9BFF;" d="M119.388,50.446l0.458-0.626c0.415,0.33,0.822,0.533,1.322,0.533c0.559,0,0.822-0.271,0.822-0.626
			c0-0.424-0.525-0.61-1.034-0.805c-0.619-0.237-1.33-0.567-1.33-1.356c0-0.779,0.627-1.364,1.652-1.364
			c0.627,0,1.135,0.254,1.517,0.55l-0.458,0.601c-0.322-0.237-0.652-0.406-1.042-0.406c-0.508,0-0.745,0.254-0.745,0.576
			c0,0.398,0.483,0.55,0.991,0.737c0.652,0.245,1.373,0.533,1.373,1.415c0,0.779-0.618,1.415-1.771,1.415
			C120.498,51.09,119.837,50.819,119.388,50.446z"/>
		<path style="fill:#2C9BFF;" d="M127.673,49.887v-5.66h0.966v5.71c0,0.263,0.119,0.356,0.238,0.356c0.042,0,0.076,0,0.161-0.017
			l0.127,0.737c-0.119,0.042-0.288,0.076-0.526,0.076C127.936,51.09,127.673,50.641,127.673,49.887z"/>
		<path style="fill:#2C9BFF;" d="M133.654,49.743c0-1,0.847-1.517,2.787-1.729c-0.008-0.542-0.204-1.017-0.889-1.017
			c-0.492,0-0.949,0.22-1.347,0.474l-0.365-0.661c0.483-0.305,1.135-0.609,1.881-0.609c1.161,0,1.695,0.737,1.695,1.974v2.804
			h-0.796l-0.085-0.534h-0.025c-0.423,0.365-0.923,0.644-1.483,0.644C134.221,51.09,133.654,50.564,133.654,49.743z M136.441,49.776
			v-1.144c-1.381,0.17-1.847,0.517-1.847,1.042c0,0.457,0.313,0.643,0.728,0.643C135.729,50.318,136.06,50.124,136.441,49.776z"/>
		<path style="fill:#2C9BFF;" d="M142.531,49.455v-2.356h-0.678v-0.728l0.72-0.051l0.11-1.288h0.822v1.288h1.212v0.779h-1.212v2.364
			c0,0.559,0.195,0.847,0.678,0.847c0.161,0,0.365-0.051,0.5-0.11l0.178,0.72c-0.263,0.084-0.576,0.169-0.915,0.169
			C142.896,51.09,142.531,50.437,142.531,49.455z"/>
		<path style="fill:#2C9BFF;" d="M149.325,44.871c0-0.347,0.263-0.576,0.618-0.576c0.356,0,0.627,0.229,0.627,0.576
			c0,0.339-0.271,0.576-0.627,0.576C149.588,45.447,149.325,45.21,149.325,44.871z M149.461,46.32h0.966v4.66h-0.966V46.32z"/>
		<path style="fill:#2C9BFF;" d="M155.289,48.659c0-1.559,1.042-2.457,2.194-2.457c1.152,0,2.194,0.898,2.194,2.457
			c0,1.542-1.042,2.431-2.194,2.431C156.331,51.09,155.289,50.2,155.289,48.659z M158.678,48.659c0-0.991-0.458-1.653-1.195-1.653
			c-0.729,0-1.186,0.661-1.186,1.653c0,0.983,0.457,1.635,1.186,1.635C158.22,50.293,158.678,49.641,158.678,48.659z"/>
		<path style="fill:#2C9BFF;" d="M164.548,46.32h0.796l0.076,0.644h0.025c0.432-0.415,0.906-0.762,1.542-0.762
			c0.991,0,1.432,0.66,1.432,1.847v2.931h-0.974v-2.813c0-0.804-0.237-1.127-0.788-1.127c-0.432,0-0.729,0.22-1.144,0.635v3.304
			h-0.966V46.32z"/>
	</g>
</g>
</svg>
