<svg id="svg1" xmlns="http://www.w3.org/2000/svg" width="172.813" height="218.15" viewBox="0 0 172.813 218.15">
  <defs>
    <style>
      .cls-1 {
        fill: #fff;
      }

      .cls-1, .cls-2, .cls-3, .cls-4 {
        fill-rule: evenodd;
      }

      .cls-2 {
        fill: #eef3f7;
      }

      .cls-3 {
        fill: #e8f2ff;
        stroke: #4d9dfb;
        stroke-width: 1px;
      }

      .cls-4 {
        fill: none;
        stroke: #eef3f7;
        stroke-width: 4px;
      }
    </style>
  </defs>
  <path id="圆角矩形_6_拷贝_8" data-name="圆角矩形 6 拷贝 8" class="cls-1" d="M442.313,1128.66H567.137a24,24,0,0,1,24,24v170.17a24,24,0,0,1-24,24H442.313a24,24,0,0,1-24-24V1152.66A24,24,0,0,1,442.313,1128.66Z" transform="translate(-418.312 -1128.66)"/>
  <path id="矩形_43" data-name="矩形 43" class="cls-2" d="M530.8,1326h15.077v-14.33h5.377c15.759,0,21.743-4.77,21.743-19.55,0-13.57-5.152-18.72-21.743-18.72H530.8V1326Zm15.077-26.3V1285h3.182c6.135,0,8.56,1.66,8.56,7.5,0,5.53-2.273,7.2-8.56,7.2h-3.182Zm-102.228-1.67h13.188a1.27,1.27,0,0,1,1.27,1.27v22.9a1.27,1.27,0,0,1-1.27,1.27H443.649a1.271,1.271,0,0,1-1.271-1.27v-22.9A1.271,1.271,0,0,1,443.649,1298.03Zm24.5-18.54h13.191a1.263,1.263,0,0,1,1.268,1.26v41.45a1.271,1.271,0,0,1-1.268,1.27H468.151a1.269,1.269,0,0,1-1.267-1.27v-41.45A1.261,1.261,0,0,1,468.151,1279.49Zm24.5-24.14h13.188a1.262,1.262,0,0,1,1.269,1.26v65.59a1.27,1.27,0,0,1-1.269,1.27H492.656a1.27,1.27,0,0,1-1.269-1.27v-65.59A1.262,1.262,0,0,1,492.656,1255.35Zm-50.911-18.06a7.6,7.6,0,1,1-7.615,7.6A7.607,7.607,0,0,1,441.745,1237.29Zm35.54-20.28a7.6,7.6,0,1,1-7.616,7.6A7.609,7.609,0,0,1,477.285,1217.01Zm49.819,23.13a7.605,7.605,0,1,1-7.614,7.6A7.608,7.608,0,0,1,527.1,1240.14Zm39.11-56.06a7.605,7.605,0,1,1-7.616,7.61A7.613,7.613,0,0,1,566.214,1184.08Z" transform="translate(-418.312 -1128.66)"/>
  <path id="矩形_43_拷贝" data-name="矩形 43 拷贝" class="cls-3" d="M464.024,1178.67v27.22a26.447,26.447,0,1,1,26.934-27.22H464.024Zm0.476,27.25h0Zm21.619-11.2-20.509-14.15h25.332A26.255,26.255,0,0,1,486.119,1194.72Z" transform="translate(-418.312 -1128.66)"/>
  <path id="形状_16" data-name="形状 16" class="cls-4" d="M442,1244l35-19,51,21,38-55" transform="translate(-418.312 -1128.66)"/>
</svg>
