<svg id="svg2" xmlns="http://www.w3.org/2000/svg" width="188.906" height="223.59" viewBox="0 0 188.906 223.59">
  <defs>
    <style>
      .cls-1, .cls-5 {
        fill: #fff;
      }

      .cls-1 {
        stroke: #eaf2fb;
      }

      .cls-1, .cls-4, .cls-5 {
        stroke-width: 1px;
      }

      .cls-1, .cls-2, .cls-5, .cls-6 {
        fill-rule: evenodd;
      }

      .cls-2, .cls-7 {
        fill: #f1f3f7;
      }

      .cls-3 {
        fill: #ebf0f6;
      }

      .cls-4 {
        fill: #4e9cfc;
        stroke: #4e9cfc;
      }

      .cls-5 {
        stroke: #dde6f0;
      }

      .cls-6 {
        fill: #eef3f7;
      }
    </style>
  </defs>
  <path id="圆角矩形_6_拷贝_2" data-name="圆角矩形 6 拷贝 2" class="cls-1" d="M411.3,1488.72H537.005a24,24,0,0,1,24,24V1682a24,24,0,0,1-24,24H411.3a24,24,0,0,1-24-24V1512.72A24,24,0,0,1,411.3,1488.72Z" transform="translate(-373.5 -1482.91)"/>
  <path id="圆角矩形_13" data-name="圆角矩形 13" class="cls-2" d="M432.5,1563.22H538.843a4.435,4.435,0,0,1,0,8.87H432.5A4.435,4.435,0,1,1,432.5,1563.22Zm0,15.96h70.895a4.435,4.435,0,1,1,0,8.87H432.5A4.435,4.435,0,1,1,432.5,1579.18Zm-22.158,75.38H541.5a4.435,4.435,0,1,1,0,8.87H410.341A4.435,4.435,0,1,1,410.341,1654.56Zm0,15.97h95.71a4.43,4.43,0,1,1,0,8.86h-95.71A4.43,4.43,0,1,1,410.341,1670.53Z" transform="translate(-373.5 -1482.91)"/>
  <circle id="椭圆_7" data-name="椭圆 7" class="cls-3" cx="37.735" cy="95.39" r="8.859"/>
  <path id="椭圆_7_拷贝" data-name="椭圆 7 拷贝" class="cls-2" d="M420.973,1602.24a18.625,18.625,0,1,1-18.612,18.62A18.617,18.617,0,0,1,420.973,1602.24Zm52.29,0a18.625,18.625,0,1,1-18.612,18.62A18.618,18.618,0,0,1,473.263,1602.24Z" transform="translate(-373.5 -1482.91)"/>
  <circle id="椭圆_7_拷贝_2" data-name="椭圆 7 拷贝 2" class="cls-4" cx="151.171" cy="137.965" r="18.609"/>
  <path id="圆角矩形_14" data-name="圆角矩形 14" class="cls-5" d="M388,1483.4H547.889a14,14,0,0,1,14,14v36.74a14,14,0,0,1-14,14H388a14,14,0,0,1-14-14V1497.4A14,14,0,0,1,388,1483.4Z" transform="translate(-373.5 -1482.91)"/>
  <path id="圆角矩形_15" data-name="圆角矩形 15" class="cls-6" d="M395.717,1510.01h65.576a7.535,7.535,0,1,1,0,15.07H395.717A7.535,7.535,0,1,1,395.717,1510.01Z" transform="translate(-373.5 -1482.91)"/>
  <circle id="椭圆_8" data-name="椭圆 8" class="cls-7" cx="163.125" cy="33.745" r="9.313"/>
</svg>
