<svg id="img_wjb" xmlns="http://www.w3.org/2000/svg" width="174" height="218" viewBox="0 0 174 218">
  <defs>
    <style>
      .cls-1 {
        fill: #fff;
        stroke: #e3ebf5;
      }

      .cls-1, .cls-2, .cls-3 {
        stroke-width: 1px;
      }

      .cls-1, .cls-2, .cls-5 {
        fill-rule: evenodd;
      }

      .cls-2, .cls-3 {
        fill: #e8f2ff;
        stroke: #4e9cfc;
      }

      .cls-4 {
        fill: #359dfc;
      }

      .cls-5 {
        fill: #4e9cfc;
      }
    </style>
  </defs>
  <path id="圆角矩形_6_拷贝_6" data-name="圆角矩形 6 拷贝 6" class="cls-1" d="M3886.51,1206H4002.8a24,24,0,0,1,24,24v148.99a23.993,23.993,0,0,1-24,24H3886.51a23.993,23.993,0,0,1-24-24V1230A24,24,0,0,1,3886.51,1206Z" transform="translate(-3857.5 -1205.5)"/>
  <path id="圆角矩形_6_拷贝_7" data-name="圆角矩形 6 拷贝 7" class="cls-2" d="M3874,1316.95h141a16,16,0,0,1,16,16V1407a16,16,0,0,1-16,16H3874a16,16,0,0,1-16-16v-74.05A16,16,0,0,1,3874,1316.95Z" transform="translate(-3857.5 -1205.5)"/>
  <path id="矩形_21" data-name="矩形 21" class="cls-3" d="M75.5,38.5h19a4,4,0,0,1,4,4v69a0,0,0,0,1,0,0h-27a0,0,0,0,1,0,0v-69A4,4,0,0,1,75.5,38.5Z"/>
  <path id="矩形_41" data-name="矩形 41" class="cls-4" d="M71.5,111.5h27a0,0,0,0,1,0,0v22a5,5,0,0,1-5,5h-17a5,5,0,0,1-5-5v-22A0,0,0,0,1,71.5,111.5Z"/>
  <path id="矩形_23" data-name="矩形 23" class="cls-5" d="M3940.59,1286.13h4.38a2,2,0,0,1,2,2v4.34a2.006,2.006,0,0,1-2,2h-4.38a2.006,2.006,0,0,1-2-2v-4.34A2,2,0,0,1,3940.59,1286.13Zm0-15.82h4.38a2.006,2.006,0,0,1,2,2v4.38a2.006,2.006,0,0,1-2,2h-4.38a2.006,2.006,0,0,1-2-2v-4.38A2.006,2.006,0,0,1,3940.59,1270.31Zm0-15.78h4.38a2.006,2.006,0,0,1,2,2v4.38a2.006,2.006,0,0,1-2,2h-4.38a2.006,2.006,0,0,1-2-2v-4.38A2.006,2.006,0,0,1,3940.59,1254.53Z" transform="translate(-3857.5 -1205.5)"/>
</svg>
