<svg id="svg4" xmlns="http://www.w3.org/2000/svg" width="181.41" height="228.5" viewBox="0 0 181.41 228.5">
  <defs>
    <style>
      .cls-1 {
        fill: #fff;
      }

      .cls-1, .cls-2, .cls-3 {
        fill-rule: evenodd;
      }

      .cls-2 {
        fill: #f1f3f7;
      }

      .cls-3 {
        fill: none;
        stroke: #e1e8ef;
      }

      .cls-3, .cls-4 {
        stroke-width: 1px;
      }

      .cls-4 {
        fill: #e8f2ff;
        stroke: #4e9cfc;
      }
    </style>
  </defs>
  <path id="圆角矩形_6_拷贝_3" data-name="圆角矩形 6 拷贝 3" class="cls-1" d="M1200.58,1131.79H1334a24,24,0,0,1,24,24v180.49a24,24,0,0,1-24,24H1200.58a24.006,24.006,0,0,1-24-24V1155.79A24.006,24.006,0,0,1,1200.58,1131.79Z" transform="translate(-1176.59 -1131.78)"/>
  <path id="矩形_42" data-name="矩形 42" class="cls-2" d="M1202,1212l22.42-22.09,9.18,13.64,25.39-27.82,27.01,36Zm30.08-45a9.41,9.41,0,1,1-9.32,9.41A9.362,9.362,0,0,1,1232.08,1167Zm59.32,43h14.68l4.92-22.69h0.35l4.8,22.69h14.68l9.17-41h-12.31l-4.8,26.88h-0.35l-4.15-23.57h-13.37l-4.74,23.57h-0.35l-4.56-26.88H1283Z" transform="translate(-1176.59 -1131.78)"/>
  <path id="矩形_42_拷贝" data-name="矩形 42 拷贝" class="cls-3" d="M1204,1255h131a2.006,2.006,0,0,1,2,2v13a2.006,2.006,0,0,1-2,2H1204a2.006,2.006,0,0,1-2-2v-13A2.006,2.006,0,0,1,1204,1255Zm0,27h131a2,2,0,0,1,2,2v13a2.006,2.006,0,0,1-2,2H1204a2.006,2.006,0,0,1-2-2v-13A2,2,0,0,1,1204,1282Zm0,27h131a2.006,2.006,0,0,1,2,2v13a2.006,2.006,0,0,1-2,2H1204a2.006,2.006,0,0,1-2-2v-13A2.006,2.006,0,0,1,1204,1309Z" transform="translate(-1176.59 -1131.78)"/>
  <rect id="矩形_42_拷贝_2" data-name="矩形 42 拷贝 2" class="cls-4" x="25.41" y="96.22" width="135" height="17" rx="2" ry="2"/>
</svg>
