<svg id="svg5" xmlns="http://www.w3.org/2000/svg" width="166.81" height="188.5" viewBox="0 0 166.81 188.5">
  <defs>
    <style>
      .cls-1 {
        fill: #fff;
      }

      .cls-1, .cls-2 {
        stroke: #f1f3f7;
        stroke-width: 2px;
      }

      .cls-1, .cls-2, .cls-3, .cls-4, .cls-5 {
        fill-rule: evenodd;
      }

      .cls-2 {
        fill: none;
      }

      .cls-3 {
        fill: #e8f2ff;
        stroke: #4e9cfc;
        stroke-width: 1px;
      }

      .cls-4 {
        fill: #f1f3f7;
      }

      .cls-5 {
        fill: #eef2f6;
      }
    </style>
  </defs>
  <path id="圆角矩形_6" data-name="圆角矩形 6" class="cls-1" d="M1553,1397.49h116.81a24,24,0,0,1,24,24V1560a24,24,0,0,1-24,24H1553a23.993,23.993,0,0,1-24-24V1421.49A23.993,23.993,0,0,1,1553,1397.49Z" transform="translate(-1528 -1396.5)"/>
  <path id="圆角矩形_10" data-name="圆角矩形 10" class="cls-2" d="M1540.57,1442.86h25.63a4,4,0,0,1,4,4v13a4,4,0,0,1-4,4h-25.63a4,4,0,0,1-4-4v-13A4,4,0,0,1,1540.57,1442.86Zm38.68,0h25.63a4,4,0,0,1,4,4v13a4,4,0,0,1-4,4h-25.63a4,4,0,0,1-4-4v-13A4,4,0,0,1,1579.25,1442.86Zm38.68,0h25.63a4,4,0,0,1,4,4v13a4,4,0,0,1-4,4h-25.63a4,4,0,0,1-4-4v-13A4,4,0,0,1,1617.93,1442.86Zm38.68,0h25.63a4,4,0,0,1,4,4v13a4,4,0,0,1-4,4h-25.63a4,4,0,0,1-4-4v-13A4,4,0,0,1,1656.61,1442.86Zm-116.04,26.88h25.63a4,4,0,0,1,4,4v13a4,4,0,0,1-4,4h-25.63a4,4,0,0,1-4-4v-13A4,4,0,0,1,1540.57,1469.74Zm38.68,0h25.63a4,4,0,0,1,4,4v13a4,4,0,0,1-4,4h-25.63a4,4,0,0,1-4-4v-13A4,4,0,0,1,1579.25,1469.74Zm38.68,0h25.63a4,4,0,0,1,4,4v13a4,4,0,0,1-4,4h-25.63a4,4,0,0,1-4-4v-13A4,4,0,0,1,1617.93,1469.74Zm38.68,0h25.63a4,4,0,0,1,4,4v13a4,4,0,0,1-4,4h-25.63a4,4,0,0,1-4-4v-13A4,4,0,0,1,1656.61,1469.74Zm-116.04,26.89h25.63a4,4,0,0,1,4,4v13a4,4,0,0,1-4,4h-25.63a4,4,0,0,1-4-4v-13A4,4,0,0,1,1540.57,1496.63Zm38.68,0h25.63a4,4,0,0,1,4,4v13a4,4,0,0,1-4,4h-25.63a4,4,0,0,1-4-4v-13A4,4,0,0,1,1579.25,1496.63Zm38.68,0h25.63a4,4,0,0,1,4,4v13a4,4,0,0,1-4,4h-25.63a4,4,0,0,1-4-4v-13A4,4,0,0,1,1617.93,1496.63Zm38.68,0h25.63a4,4,0,0,1,4,4v13a4,4,0,0,1-4,4h-25.63a4,4,0,0,1-4-4v-13A4,4,0,0,1,1656.61,1496.63Zm-116.04,26.88h25.63a4,4,0,0,1,4,4v13a4,4,0,0,1-4,4h-25.63a4,4,0,0,1-4-4v-13A4,4,0,0,1,1540.57,1523.51Zm38.68,0h25.63a4,4,0,0,1,4,4v13a4,4,0,0,1-4,4h-25.63a4,4,0,0,1-4-4v-13A4,4,0,0,1,1579.25,1523.51Zm-38.68,26.88h25.63a4.005,4.005,0,0,1,4,4v13.01a4,4,0,0,1-4,4h-25.63a4,4,0,0,1-4-4v-13.01A4.005,4.005,0,0,1,1540.57,1550.39Zm38.68,0h25.63a4.005,4.005,0,0,1,4,4v13.01a4,4,0,0,1-4,4h-25.63a4,4,0,0,1-4-4v-13.01A4.005,4.005,0,0,1,1579.25,1550.39Z" transform="translate(-1528 -1396.5)"/>
  <path id="圆角矩形_10_拷贝_2" data-name="圆角矩形 10 拷贝 2" class="cls-3" d="M1617.93,1442.86h25.63a4,4,0,0,1,4,4v13a4,4,0,0,1-4,4h-25.63a4,4,0,0,1-4-4v-13A4,4,0,0,1,1617.93,1442.86Zm38.68,0h25.63a4,4,0,0,1,4,4v13a4,4,0,0,1-4,4h-25.63a4,4,0,0,1-4-4v-13A4,4,0,0,1,1656.61,1442.86Z" transform="translate(-1528 -1396.5)"/>
  <path id="圆角矩形_10_拷贝" data-name="圆角矩形 10 拷贝" class="cls-4" d="M1541.41,1412.61H1681.4a4,4,0,0,1,4,4v13a4,4,0,0,1-4,4H1541.41a4,4,0,0,1-4-4v-13A4,4,0,0,1,1541.41,1412.61Z" transform="translate(-1528 -1396.5)"/>
  <path id="X" class="cls-5" d="M1625.69,1569.71h17.4l8.88-14.19h0.44l8.59,14.19h17.68l-15.31-22.15,14.8-20.68h-17.32l-8.22,13.64h-0.44l-8.36-13.64h-17.18l14.73,21.05Z" transform="translate(-1528 -1396.5)"/>
</svg>
