<svg id="svg7" xmlns="http://www.w3.org/2000/svg" width="149" height="160.62" viewBox="0 0 149 160.62">
  <defs>
    <style>
      .cls-1 {
        fill: #fff;
        stroke: #cedae9;
        stroke-width: 1px;
      }

      .cls-1, .cls-2 {
        fill-rule: evenodd;
      }

      .cls-2 {
        fill: #f1f3f7;
      }
    </style>
  </defs>
  <path id="圆角矩形_6_拷贝_5" data-name="圆角矩形 6 拷贝 5" class="cls-1" d="M1833.01,1233.66H1933a24.006,24.006,0,0,1,24,24v111.63a24.006,24.006,0,0,1-24,24h-99.99a24,24,0,0,1-24-24V1257.66A24,24,0,0,1,1833.01,1233.66Z" transform="translate(-1808.5 -1233.16)"/>
  <path id="矩形_24" data-name="矩形 24" class="cls-2" d="M1951.12,1332.8h-13.46v2.6a10,10,0,0,1-10,10h-2.61v40.33h-5.89V1345.4h-0.93a10,10,0,0,1-10-10v-2.6h-92.49v-5.88h92.49v-0.93a10,10,0,0,1,10-9.99h0.93v-72.26h5.89V1316h2.61a10,10,0,0,1,10,9.99v0.93h13.46v5.88Z" transform="translate(-1808.5 -1233.16)"/>
  <path id="A" class="cls-2" d="M1874.43,1310.11h16.98l-20.26-55.45h-21.54l-20.42,55.45h16.65l3.93-11.67h20.82Zm-20.42-24.45,5.77-17.34h0.96l5.68,17.34h-12.41Z" transform="translate(-1808.5 -1233.16)"/>
</svg>
